<svg viewBox="0 0 1024 1024" version="1.1" xmlns="http://www.w3.org/2000/svg" p-id="12625">
  <path
    d="M511.886235 1023.886235a511.943117 511.943117 0 1 1 0-1023.886235 511.943117 511.943117 0 0 1 0 1023.886235z m0-959.32452a447.381402 447.381402 0 1 0 0 894.762804 447.381402 447.381402 0 0 0 0-894.762804z m195.10721 361.204311c-11.774692 51.706255-23.663149 104.834574-36.859904 156.540829-3.924897 17.292301-13.196756 32.99189-19.795134 48.805244-39.590268 80.488835-104.095101 117.860682-184.356405 127.928896-38.168204 4.323075-76.450172 1.422064-111.944895-15.870236a232.877236 232.877236 0 0 1-34.243306-21.558494c-7.792912 21.444728-15.699589 43.060104-27.531164 45.904233-10.466393 2.901011-23.663149-4.266193-27.644928-15.813354-1.308299-4.323075-3.924897-11.547161-2.673481-15.870237 5.346961-32.935007 13.253638-48.805244 18.486835-58.873458 31.569826-68.941673 77.644706-122.126875 135.608044-165.186979 22.411732-15.699589 44.880347-30.147761 72.41151-31.569826 14.561938-1.308299 22.468615-14.277525 22.468614-30.147761-1.308299-14.334407-11.831574-25.881569-25.02833-24.402622-18.486835 2.844128-38.168204 7.224086-55.346739 14.39129-59.271636 28.78258-105.346517 77.587824-144.82302 132.195089-7.906677 8.532385-15.813354 20.079547-25.02833 34.413954a231.512054 231.512054 0 0 1 9.214976-127.872014c17.064771-48.805244 48.691479-84.698145 89.47628-113.480724 61.945117-44.482169 130.317965-70.306855 201.478058-87.599156a721.157205 721.157205 0 0 1 175.198312-21.558494c13.026108 0 23.606266 2.844128 28.896345 17.235419 5.290079 14.39129 0 24.516387-9.271859 34.584601-28.896345 32.99189-39.476503 74.743695-48.691479 117.8038z"
    fill="currentColor" p-id="12626"></path>
</svg>