<svg class="icon" style="width: 1em;height: 1em;vertical-align: middle;fill: currentColor;overflow: hidden;" viewBox="0 0 1024 1024" version="1.1" xmlns="http://www.w3.org/2000/svg" p-id="2483"><path d="M946.4 0c-25.7 0-46.5 20.8-46.5 46.5v378.7c-10.8-13.5-24.3-25.2-40.2-34.2L248 40.2l-0.4-0.2c-19.1-10.7-40.7-17.1-62.6-18.4C105 17 35.9 78.2 31 161l0.1 704.2c1.2 22.2 7.5 44.2 18.4 63.5 26.5 47.2 75.7 73.7 126.4 73.7 24.1 0 48.6-6 71.1-18.7l615.2-351.3c14.5-8.6 27.2-19.7 37.7-32.8v377.7c0 25.7 20.8 46.5 46.5 46.5s46.5-20.8 46.5-46.5V46.5C993 20.8 972.1 0 946.4 0z m-115 535.4c-4 7.1-9.8 13-16.1 16.7L201.1 902.9c-24.9 14-56.5 5.1-70.5-19.7-3.9-6.9-6.2-14.8-6.5-20.3l-0.1-699c1.7-27.8 24.8-49.4 52.3-49.4 1 0 2.1 0 3.1 0.1 7.8 0.5 15.6 2.7 22.4 6.5L813.6 472c22.4 12.6 30.4 41 17.8 63.4z" fill="#27D0D8" p-id="2484"></path></svg>