<svg class="icon" style="width: 1em;height: 1em;vertical-align: middle;fill: currentColor;overflow: hidden;" viewBox="0 0 1024 1024" version="1.1" xmlns="http://www.w3.org/2000/svg" p-id="1620"><path d="M993 156.5C994.8 80 934.2 16.3 857.8 14.4c-25.5-0.6-51 5.8-73.3 18.8L168.3 390c-18 10.5-32.9 24.5-44.2 40.6v-384C124.1 20.8 103.3 0 77.5 0S31 20.8 31 46.5v930.9c0 25.7 20.8 46.5 46.5 46.5s46.5-20.8 46.5-46.5V593c11.9 16.9 27.4 31 45.1 41.1L784 990.7c21.5 12.5 45.5 19 69.8 19 11.9 0 23.8-1.5 35.6-4.6 35.9-9.4 66-32.3 84.7-64.4 12.9-22.2 19.5-47.4 18.9-72V156.5z m-93.1 713.1c0.2 8.5-2 16.8-6.2 24.2-12.8 21.9-40.9 29.3-62.8 16.5L215.6 553.5c-7.3-4.2-13.4-10.2-17.6-17.4-13.3-22.9-5.6-52.3 17.1-65.6l616.1-356.6 0.1-0.1c7-4.1 14.9-6.2 23-6.2h1.2c25.1 0.6 45.1 21.6 44.5 47.9v714.1z" fill="#27D0D8" p-id="1621"></path></svg>